<?xml version="1.0" encoding="UTF-8"?>
<svg width="1200pt" height="1200pt" version="1.1" viewBox="0 0 1200 1200" xmlns="http://www.w3.org/2000/svg">
 <path d="m169.94 267.8c15.977 1.707 21.168-0.96094 40.844 4.2031 46.801 12.324 71.285 30.992 110.52 56.605 23.785 15.52 50.621 32.121 68.039 54.922 19.34 25.324 17.18 48.293 42.164 75.777 28.277 31.066 62.371 46.633 85.797 70.996 7.7852 8.1211 22.535 24.289 23.207 35.773 0.9375 15.711-21.551 12.18-31.809 12.062-29.238-0.35938-81.184-19.414-108.12-31.93-22.848-10.621-43.75-22.703-69.676-23.305-20.781-0.45703-32.316 4.4453-50.453 14.199-11.102 5.9805-17.227 9.6836-25.707 19.438-8.457 9.7539-14.801 21.504-19.102 33.613-7.4727 21-8.3125 30.945-8.0469 52.855 0.097657 6.7031 0.12109 13.023 3.1484 19.219 11.172 22.848 57.781 46.344 83.344 47.836 23.016 1.3438 52.734-13.023 69.676-14.078 12.758-0.76953 32.965 4.2539 27.004 21.504-2.7617 8.0469-10.762 13.742-17.395 18.5-20.758 14.895-57.203 29.191-81.688 38.129-14.777 5.3828-32.797 7.8789-43.246 20.254 14.367 6.8008 24.914 20.109 36.039 31.234 17.418 17.418 45.723 44.617 58.742 64.871 6.8711 10.645 18.621 34.164 3.3633 43.199-15.062 8.9141-43.848-3.1953-57.301-11.027-32.219-18.789-43.656-34.094-68.859-58.887 0 0-47.234-48.172-47.234-48.172-69.625-75.391-107.59-152.85-122.17-254.26l-3.9648-19.219s-2.8359-50.453-2.8359-50.453-4.2266-47.645-4.2266-47.645l27.652-58.07 60.664-122.53s21.625 4.3984 21.625 4.3984zm720.77 506.99c-28.809-10.957-58.527-21.238-84.09-38.922-6.7031-4.6367-14.633-10.355-17.395-18.379-5.957-17.25 14.246-22.273 27.004-21.504 16.938 1.0586 46.656 15.426 69.676 14.078 25.562-1.4883 72.172-24.988 83.344-47.836 3.5781-7.3516 3.1484-16.051 3.1484-24.027 0.046874-44.93-16.266-82.625-57.66-103.65-16.77-8.5039-26.766-12.062-45.648-11.652-25.922 0.60156-46.824 12.684-69.676 23.305-26.211 12.18-79.812 31.594-108.12 31.93-10.258 0.12109-32.746 3.6523-31.809-12.062 0.69531-12.109 16.77-29.289 25.324-37.457 27.223-26.043 55.57-38.441 83.68-69.312 24.988-27.484 22.824-50.453 42.164-75.777 17.418-22.801 44.254-39.402 68.039-54.922 39.258-25.637 63.934-43.969 110.52-56.242 22.152-5.8398 22.609-2.6172 40.844-4.5664 0 0 21.621-4.3984 21.621-4.3984l60.664 122.53 27.652 58.07s-4.2305 47.645-4.2305 47.645-2.8359 50.453-2.8359 50.453l-3.9648 19.219c-14.582 101.41-52.543 178.87-122.17 254.26-31.281 33.875-77.121 84.328-116.09 107.06-13.453 7.832-42.238 19.941-57.301 11.027-15.953-9.418-2.4492-34.742 4.6836-45.602 11.195-17.059 42.238-47.281 57.422-62.465 11.125-11.125 21.672-24.434 36.039-31.234-10.043-11.895-26.691-14.223-40.844-19.582zm-345.97-155.8c-24.41 74.48-51.992 140.07-102.3 201.14 0 0-36.758 42.188-36.758 42.188-5.0195 5.5-10.98 13.91-19.508 10.93-8.1211-2.8125-23.617-21.141-28.832-28.422 33.25-33.562 79.887-87.789 100.98-129.74 17.973-35.68 28.352-74.48 38.367-112.92l48.051 16.816zm141.75-10.281c4.5391-1.4648 10.738-4.4688 15.258-1.6094 5.957 3.7227 7.6875 19.531 9.6602 26.309 6.3672 22.152 13.672 43.68 22.777 64.871 16.555 38.562 45.578 77.699 73.664 108.79 11.844 13.117 24.555 25.781 34.812 40.172-6.0078 6.0078-23.594 25.609-31.137 26.645-7.0625 0.96094-13.406-8.0234-17.684-12.637 0 0-39.449-45.242-39.449-45.242-48.125-59.129-75.562-125.17-99.129-197.01l31.234-10.281zm36.445 231.32c-14.488-16.023-28.184-32.988-40.891-50.453-24.699-34.02-43.918-76.066-58.84-115.32-2.5-6.5586-10.379-27.773-10.621-33.586-0.16797-4.3711 1.7305-12.734 7.9531-9.25 4.0859 2.2578 7.543 14.27 9.1797 18.812l20.59 52.855c21.742 46.031 37.07 74.168 71.547 112.7 0 0 39.113 41.059 39.113 41.059 4.7344 4.7344 16.602 15.688 18.621 21.504 4.1328 11.918-14.512 9.8008-21.023 9.7305l-50.453-4.8047-64.871-2.4023s-43.246-4.6133-43.246-4.6133h-28.832l-36.039-2.5938c-22.441-0.097656-43.176-0.046875-64.871-7.207 4.8789-12.109 12.156-9.8516 24.027-9.5859 0 0 36.039 4.5898 36.039 4.5898h31.234l24.027 2.5h28.832l52.855 4.9023 45.648 2.4023h38.441c-8.9375-12.469-18.379-20.109-28.422-31.234zm-134.95-72.172c-37.121 35.918-78.277 63.02-122.53 89.016l-45.648 25.828c-4.3242 2.2812-12.637 6.8242-16.648 1.5859-4.2539-5.5273 3.1953-10.453 7.1602-12.805l40.723-23.281c47.617-27.895 79.309-47.5 120.13-85.941l41.852-42.383c3.9648-2.2812 6.7266-2.043 11.004-2.3789-2.4766 17.754-23.258 37.984-36.039 50.359zm204.22 132.24v33.637h-384.41v-33.637h384.41z"/>
</svg>
